<?xml version="1.0" standalone="no"?>
<!DOCTYPE svg PUBLIC "-//W3C//DTD SVG 20010904//EN"
 "http://www.w3.org/TR/2001/REC-SVG-20010904/DTD/svg10.dtd">
<svg version="1.0" xmlns="http://www.w3.org/2000/svg"
 width="647.000000pt" height="470.000000pt" viewBox="0 0 647.000000 470.000000"
 preserveAspectRatio="xMidYMid meet">

<g transform="translate(0.000000,470.000000) scale(0.100000,-0.100000)"
fill="#000000" stroke="none">
<path d="M0 2350 l0 -2350 3235 0 3235 0 0 2350 0 2350 -3235 0 -3235 0 0
-2350z m2748 28 l3 -88 37 0 c37 0 39 2 90 90 50 85 55 90 87 90 19 0 37 -5
40 -10 4 -6 -18 -52 -47 -102 -29 -51 -54 -95 -56 -98 -1 -4 25 -52 58 -107
33 -56 60 -106 60 -112 0 -6 -18 -11 -43 -11 l-43 0 -50 88 c-49 86 -50 87
-92 90 l-42 3 0 -90 0 -91 -40 0 -40 0 0 213 c0 118 3 217 7 221 4 4 21 6 38
4 l30 -3 3 -87z m992 52 l0 -39 -122 -3 -123 -3 0 -45 0 -45 108 -5 c139 -6
147 -14 147 -132 0 -70 -3 -82 -25 -103 -23 -24 -28 -25 -170 -25 l-146 0 3
38 3 37 125 5 125 5 0 45 0 45 -107 5 c-132 6 -140 12 -146 105 -5 77 2 109
28 135 18 18 34 20 160 20 l140 0 0 -40z m490 0 l0 -40 -75 0 -75 0 0 -180 0
-180 -40 0 -40 0 0 180 0 180 -75 0 -75 0 0 33 c0 19 3 37 7 40 3 4 89 7 190
7 l183 0 0 -40z m455 10 c34 -34 49 -120 41 -237 -6 -103 -21 -143 -61 -161
-15 -7 -72 -12 -136 -12 -179 0 -194 17 -194 227 0 118 2 134 21 160 36 48 58
54 186 51 110 -3 119 -5 143 -28z m454 15 c68 -35 68 -193 0 -234 l-28 -17 44
-75 c25 -40 45 -80 45 -86 0 -9 -15 -13 -43 -13 l-42 0 -50 90 -50 90 -52 0
-52 0 -3 -87 -3 -88 -40 0 -40 0 0 125 0 125 133 3 c131 3 133 3 142 27 6 16
6 34 0 50 -9 24 -11 24 -142 27 -131 3 -133 3 -136 26 -7 50 -3 52 148 52 104
0 148 -4 169 -15z m496 -25 l0 -35 -165 0 -165 0 -3 38 -3 37 168 -2 168 -3 0
-35z m-2325 -170 l0 -30 -95 0 -95 0 0 30 0 30 95 0 95 0 0 -30z m2320 -10 l0
-40 -125 0 c-120 0 -125 -1 -125 -21 0 -11 5 -29 10 -40 10 -17 22 -19 118
-19 59 0 113 -4 120 -9 8 -5 12 -23 10 -47 l-3 -39 -125 -3 c-85 -1 -133 2
-150 11 -39 19 -60 72 -60 149 0 98 1 98 181 98 l149 0 0 -40z"/>
<path d="M4432 2378 c-17 -17 -17 -239 0 -256 7 -7 44 -12 98 -12 54 0 91 5
98 12 8 8 12 51 12 130 0 106 -2 118 -19 128 -28 14 -174 13 -189 -2z"/>
</g>
</svg>
