<?xml version="1.0" standalone="no"?>
<!DOCTYPE svg PUBLIC "-//W3C//DTD SVG 20010904//EN"
 "http://www.w3.org/TR/2001/REC-SVG-20010904/DTD/svg10.dtd">
<svg version="1.0" xmlns="http://www.w3.org/2000/svg"
 width="4096.000000pt" height="2912.000000pt" viewBox="0 0 4096.000000 2912.000000"
 preserveAspectRatio="xMidYMid meet">

<g transform="translate(0.000000,2912.000000) scale(0.100000,-0.100000)"
fill="#000000" stroke="none">
<path d="M22727 29087 c15 -19 82 -96 148 -173 907 -1052 1669 -2450 2220
-4074 550 -1621 907 -3462 1064 -5490 22 -282 43 -634 63 -1045 21 -444 15
-2117 -7 -2093 -2 2 -15 75 -30 163 -138 829 -450 1624 -907 2310 -381 571
-875 1098 -1363 1451 -137 100 -132 104 -69 -48 378 -911 600 -1832 655 -2708
15 -233 6 -759 -16 -970 -113 -1110 -510 -2093 -1153 -2860 -97 -116 -260
-286 -267 -278 -3 2 8 76 25 164 192 1021 150 1905 -115 2459 -82 173 -75 173
-120 -6 -108 -441 -250 -827 -460 -1254 -270 -548 -576 -1002 -995 -1475 -151
-171 -495 -513 -665 -661 -715 -623 -1555 -1142 -2415 -1491 l-145 -59 535 5
c547 5 706 11 1170 46 2151 163 4106 756 5495 1668 184 120 380 264 510 375
49 42 90 75 91 74 7 -9 -19 -311 -36 -413 -88 -543 -360 -1144 -741 -1641
l-79 -102 38 16 c74 31 293 144 423 219 256 146 517 329 739 518 229 194 539
527 722 772 447 603 776 1342 948 2129 62 283 106 591 117 808 3 76 10 140 14
143 24 14 327 -408 460 -641 395 -692 668 -1636 773 -2680 32 -311 39 -441 45
-825 l6 -395 49 110 c373 845 600 1848 681 3015 68 978 25 2080 -119 3088 -17
122 -29 222 -27 222 2 0 55 -27 117 -60 861 -456 1631 -1172 2311 -2150 745
-1070 1411 -2569 1769 -3979 24 -96 46 -176 48 -178 10 -10 18 908 13 1372
-15 1209 -87 2240 -233 3330 -481 3603 -1735 6628 -3693 8915 -331 386 -893
962 -1246 1274 -855 759 -1711 1352 -2710 1879 -1097 578 -2421 1046 -3460
1222 -83 14 -163 27 -178 30 l-28 5 28 -33z"/>
<path d="M19558 28893 c-700 -1314 -1460 -2514 -1997 -3148 -130 -154 -375
-392 -481 -467 -244 -173 -566 -298 -807 -315 l-92 -6 19 74 c65 252 234 1004
336 1494 65 311 174 890 174 923 0 9 -59 -95 -131 -233 -592 -1129 -1093
-1799 -1446 -1936 -73 -28 -262 -37 -415 -19 -403 46 -1057 236 -1777 517
l-195 76 -25 -30 c-14 -16 -82 -98 -150 -182 -570 -702 -1365 -1485 -2044
-2013 -485 -377 -904 -647 -1372 -883 -538 -272 -1017 -428 -1530 -501 -217
-30 -728 -29 -887 3 l-28 6 49 -139 c251 -713 549 -1426 800 -1920 156 -306
223 -459 376 -859 207 -542 340 -797 552 -1060 92 -114 251 -271 368 -365 78
-62 282 -200 296 -200 4 0 -6 31 -21 68 -81 200 -197 607 -239 842 -49 274
-65 597 -40 805 21 176 80 362 132 421 77 88 275 139 628 160 l115 7 13 -44
c45 -154 178 -459 294 -679 l72 -135 6 60 c18 177 136 471 306 765 27 47 48
90 46 96 -2 5 53 22 124 38 298 64 518 162 729 322 l31 24 66 -158 c37 -86
100 -224 141 -307 l74 -150 1 87 c1 157 71 411 192 699 83 195 300 619 335
655 35 34 157 89 244 110 58 14 159 18 199 7 22 -6 23 -9 18 -67 -21 -213 -30
-710 -18 -992 35 -893 167 -1507 420 -1964 282 -508 421 -965 453 -1493 11
-163 10 -190 -2 -198 -33 -21 -202 -68 -300 -84 -108 -18 -449 -25 -520 -11
-21 4 -6 -5 37 -22 204 -83 361 -206 485 -382 65 -93 131 -227 124 -253 -10
-37 -105 -155 -164 -203 -147 -120 -288 -152 -550 -123 -419 45 -974 254
-1466 553 -87 53 -154 90 -149 83 592 -773 1185 -1250 1671 -1343 162 -31 594
-12 817 36 469 102 745 365 859 820 55 217 70 402 61 745 -5 205 -3 294 9 420
134 1332 569 2223 1209 2476 40 16 67 28 61 29 -15 0 -261 -73 -364 -108 -490
-169 -913 -449 -1152 -762 -33 -44 -55 -65 -59 -57 -7 12 -50 348 -68 527 -36
349 -38 788 -6 1039 90 703 386 1156 935 1431 195 98 334 144 666 224 525 125
975 200 1989 331 1177 152 1627 233 2190 396 681 197 1311 500 1859 893 143
103 303 226 294 226 -3 0 -83 -18 -179 -41 -1073 -250 -2263 -426 -3074 -455
l-190 -7 121 81 c245 163 537 392 824 646 170 150 610 590 762 761 1025 1156
1766 2481 2228 3984 27 91 49 166 47 168 -2 1 -30 -39 -62 -90 -171 -269 -510
-749 -743 -1052 -1122 -1456 -2292 -2530 -3427 -3143 -167 -90 -304 -157 -310
-151 -2 2 39 99 92 214 747 1647 1343 3226 1554 4115 41 173 93 463 87 482 -2
6 -52 -79 -110 -189z m-6662 -5048 c-112 -451 -227 -918 -254 -1039 -28 -120
-53 -220 -55 -222 -8 -8 -513 -84 -787 -118 -317 -40 -1481 -158 -1488 -151
-2 1 41 33 94 71 245 170 803 598 1159 888 677 551 1292 1116 1502 1381 15 19
29 30 31 23 1 -7 -89 -382 -202 -833z"/>
<path d="M17340 21424 c-764 -43 -1350 -178 -1846 -427 -589 -296 -888 -720
-861 -1223 8 -138 18 -167 35 -93 16 67 78 200 132 280 24 35 80 102 124 147
435 449 1238 512 2342 182 339 -102 591 -233 787 -410 251 -227 396 -475 469
-807 30 -133 32 -470 5 -608 -49 -245 -120 -452 -229 -667 -334 -658 -962
-1273 -1838 -1800 -255 -153 -501 -280 -965 -498 -1369 -644 -2239 -1208
-2900 -1882 -714 -726 -1130 -1556 -1273 -2541 l-19 -127 3423 0 3422 0 -35
98 c-43 122 -86 287 -114 439 -27 149 -38 512 -20 660 68 553 284 932 816
1434 150 140 378 329 398 329 10 0 8 -100 -4 -230 -31 -342 -139 -731 -313
-1133 -10 -22 -12 -36 -7 -32 24 14 271 310 369 440 458 611 816 1357 1011
2107 40 152 92 397 106 493 7 52 20 85 33 85 14 0 89 -190 122 -305 33 -117
61 -267 82 -430 16 -133 16 -636 0 -779 -7 -59 -11 -110 -9 -112 6 -6 141 378
210 596 374 1179 473 2098 302 2799 -14 57 -24 106 -22 108 2 2 67 -59 143
-134 155 -153 307 -326 421 -478 94 -126 90 -121 86 -82 -95 1017 -162 1474
-284 1929 -263 982 -767 1623 -1704 2166 -147 85 -388 202 -505 245 -346 128
-732 208 -1185 247 -127 11 -596 20 -705 14z"/>
<path d="M800 10829 c0 -17 13 -189 30 -382 95 -1120 181 -2372 225 -3257 23
-462 39 -1141 31 -1271 l-8 -115 -156 18 c-194 22 -483 69 -706 114 -93 19
-171 32 -173 31 -2 -2 47 -25 109 -52 237 -100 526 -196 783 -260 l130 -32 -3
-129 c-4 -227 -58 -752 -128 -1245 -71 -510 -167 -1039 -299 -1663 -39 -187
-71 -342 -70 -344 13 -17 2206 226 2228 247 9 9 -363 304 -431 341 -25 14 -55
38 -66 53 -21 28 -21 36 -19 495 2 426 23 1463 39 1940 7 185 8 193 28 196 52
10 286 27 295 22 5 -4 41 -72 80 -152 284 -589 902 -1530 2551 -3889 277 -396
559 -802 627 -902 69 -101 127 -183 131 -183 37 -2 2182 153 2195 159 14 5 -3
20 -80 71 -196 130 -390 283 -658 519 -176 154 -734 715 -927 931 -182 204
-438 502 -438 511 0 3 109 9 243 13 348 9 517 18 512 26 -2 4 123 5 278 3 831
-10 1667 -24 2012 -34 376 -10 394 -9 510 11 149 26 440 39 872 40 353 0 542
10 793 41 808 100 1647 411 2111 780 116 92 299 284 381 400 75 105 178 298
231 434 72 185 124 405 158 664 10 85 21 156 23 158 5 5 235 -43 242 -50 7 -7
-22 -330 -51 -557 -68 -534 -174 -1061 -339 -1683 l-44 -168 66 6 c37 3 180
14 317 26 587 47 1627 148 1638 159 9 8 -339 240 -395 263 -18 8 -42 24 -53
37 -20 22 -20 35 -18 649 1 344 4 753 8 909 l7 282 59 0 59 0 106 -212 c252
-503 753 -1593 925 -2010 l44 -108 60 5 c33 3 521 33 1085 66 l1025 60 415
-10 c228 -6 453 -13 500 -16 110 -7 109 -7 -235 129 -148 59 -277 110 -286
114 -15 6 13 120 220 922 l237 915 40 7 c174 33 1647 155 1666 139 4 -4 541
-1415 695 -1827 2 -7 -21 -24 -52 -38 -101 -46 -625 -348 -625 -359 0 -1 587
-2 1303 -2 l1304 0 -201 103 c-224 115 -401 215 -490 275 -46 31 -63 50 -81
91 -44 99 -1968 4691 -1972 4706 -3 10 118 106 371 294 207 154 374 281 373
283 -3 3 -1089 -58 -1657 -92 -549 -33 -1085 -76 -1096 -87 -5 -6 -223 -884
-394 -1588 -390 -1602 -642 -2586 -811 -3165 -47 -160 -119 -386 -124 -393 -4
-4 -264 151 -355 211 -41 28 -111 78 -155 111 l-79 60 34 7 c19 4 128 17 242
29 l207 23 -91 52 c-312 179 -789 634 -1297 1238 -66 79 -121 149 -121 154 0
14 34 28 225 93 207 71 301 108 404 160 511 256 784 585 878 1055 25 127 25
491 0 620 -95 482 -339 845 -753 1120 -341 227 -761 359 -1341 424 -305 34
-463 42 -971 48 l-493 6 6 -134 c3 -74 12 -386 20 -694 17 -648 31 -1167 45
-1690 14 -522 13 -875 -2 -875 -6 0 -62 5 -124 11 l-112 12 -5 326 c-5 351
-16 468 -67 721 -53 266 -115 451 -230 685 -276 566 -733 982 -1410 1283 -597
266 -975 354 -1755 413 -77 5 -353 13 -612 16 -466 6 -473 5 -473 -14 0 -11
16 -163 35 -339 64 -596 99 -995 132 -1504 22 -338 25 -1276 5 -1540 -33 -446
-84 -960 -152 -1525 -62 -525 -73 -605 -80 -605 -10 0 -134 272 -195 430 -56
142 -95 278 -95 327 0 20 -18 -9 -64 -104 -136 -278 -206 -343 -460 -428 -244
-82 -516 -103 -1096 -86 -223 6 -469 11 -547 11 l-141 0 -6 38 c-13 88 -72
1759 -63 1769 3 2 50 17 106 33 129 37 324 75 469 90 142 16 510 8 645 -14
254 -41 507 -115 719 -211 l119 -54 -7 257 c-4 141 -8 478 -8 748 l-1 491 -74
-66 c-111 -99 -256 -256 -282 -306 -13 -24 -32 -46 -44 -50 -108 -31 -317 -57
-585 -75 -179 -11 -753 -30 -944 -30 l-118 0 5 658 c5 638 14 870 41 1058 20
138 24 144 131 171 50 12 167 38 260 57 511 104 884 95 1147 -27 169 -78 363
-213 561 -391 l107 -96 0 89 c0 186 39 718 75 1031 8 69 15 139 15 156 l0 31
-48 -8 c-304 -48 -2745 -111 -3062 -79 -86 9 -222 14 -895 36 l-210 7 100 -75
c282 -210 538 -456 598 -573 48 -95 62 -412 61 -1425 -1 -801 -8 -1244 -34
-2030 -17 -518 -46 -1079 -55 -1089 -12 -12 -920 763 -1570 1338 -220 195
-816 732 -885 797 l-64 61 61 31 c34 17 141 63 238 102 201 80 300 128 429
208 190 117 300 204 441 347 272 275 434 610 500 1030 22 138 31 501 16 651
-26 254 -98 523 -194 724 -233 487 -686 889 -1337 1191 -307 142 -521 218
-1220 434 -734 227 -1015 328 -1262 451 -59 30 -110 54 -113 54 -3 0 -5 -14
-5 -31z m2011 -1493 c302 -105 568 -491 699 -1015 61 -248 83 -442 83 -731 -1
-393 -55 -709 -170 -1000 -60 -151 -96 -205 -212 -321 -188 -189 -440 -320
-766 -400 -66 -16 -123 -29 -128 -29 -4 0 -5 71 -2 158 3 86 15 429 26 762 31
961 80 2218 95 2440 6 88 9 96 36 122 16 15 48 32 71 37 65 16 188 5 268 -23z
m18581 -1398 c-7 -7 -12 -8 -12 -2 0 14 12 26 19 19 2 -3 -1 -11 -7 -17z
m-5418 -174 c334 -52 602 -172 751 -337 86 -95 156 -247 186 -405 17 -89 6
-259 -21 -347 -99 -314 -402 -596 -843 -785 -125 -53 -323 -117 -393 -127
l-42 -5 -1 143 c-1 79 -6 302 -11 494 -6 193 -12 577 -13 855 l-2 504 25 13
c35 18 240 16 364 -3z m4955 -1125 l369 -974 -47 -7 c-42 -6 -1211 -18 -1211
-12 0 2 432 1671 501 1938 6 21 12 36 15 33 2 -2 170 -442 373 -978z m-9663
907 c491 -77 679 -120 854 -195 152 -66 259 -158 356 -307 355 -544 290 -1389
-161 -2080 -30 -47 -55 -86 -55 -89 0 -7 141 36 318 97 253 86 465 182 608
275 21 13 21 13 12 -44 -27 -180 -98 -404 -181 -569 -260 -518 -786 -878
-1497 -1024 -255 -52 -640 -89 -640 -61 0 7 15 90 34 184 160 797 186 1871 76
3082 -21 230 -63 598 -80 700 -15 90 -15 88 28 82 20 -3 168 -26 328 -51z"/>
<path d="M37805 10798 c31 -18 639 -258 728 -288 97 -33 97 -34 108 -74 31
-114 59 -382 80 -761 17 -307 23 -1961 10 -2785 -13 -863 -22 -1210 -30 -1210
-21 1 -233 324 -466 710 -372 615 -1363 2344 -1676 2923 l-64 119 -98 -7
c-137 -8 -1472 -24 -2212 -26 -341 0 -631 -4 -644 -8 -19 -5 29 -25 210 -90
129 -46 332 -115 453 -155 l218 -71 -6 -485 c-17 -1280 -74 -3417 -116 -4330
-36 -781 -79 -1313 -108 -1341 -4 -4 -50 -26 -102 -49 -52 -23 -205 -96 -338
-163 l-244 -122 1154 -7 c634 -3 1400 -11 1702 -17 302 -6 550 -10 552 -9 1 2
-88 36 -199 77 -620 226 -685 252 -691 274 -49 202 -102 1318 -156 3352 -13
479 -25 1655 -17 1655 26 0 444 -764 1987 -3630 1604 -2979 2113 -3909 2298
-4196 44 -68 50 -74 56 -53 10 40 25 1897 31 4024 12 4084 35 6159 71 6386 6
34 9 37 64 52 77 22 306 138 458 232 67 42 122 77 122 78 0 1 -708 2 -1574 2
-866 0 -1569 -3 -1561 -7z"/>
<path d="M25830 8520 c-654 -83 -987 -195 -1380 -461 -253 -172 -514 -409
-685 -624 -238 -298 -427 -663 -521 -1004 -80 -292 -110 -544 -101 -870 11
-429 86 -855 212 -1208 60 -166 195 -441 280 -568 372 -556 929 -895 1645
-999 205 -30 402 -36 892 -26 840 17 2064 53 2072 60 3 3 -8 57 -24 120 -92
365 -170 835 -190 1142 -5 84 -21 293 -35 463 -31 397 -55 767 -55 874 l0 84
-157 -6 c-783 -33 -1828 -67 -2073 -67 l-165 -1 150 -53 c767 -271 1365 -544
1439 -659 18 -26 31 -153 46 -447 12 -236 3 -426 -24 -478 -19 -36 -114 -79
-351 -157 -308 -102 -484 -130 -760 -122 -1008 30 -1592 535 -1790 1549 -36
184 -37 181 38 112 153 -144 373 -245 567 -261 l75 -6 -110 114 c-291 302
-452 613 -511 987 -13 83 -15 146 -11 282 13 396 121 661 374 913 147 146 285
237 471 313 361 147 844 177 1251 78 475 -116 959 -398 1369 -798 45 -44 82
-75 82 -69 0 27 73 406 96 498 67 267 156 486 301 738 25 43 44 80 42 82 -18
16 -747 226 -1060 305 -679 170 -1045 214 -1399 170z"/>
<path d="M30635 8474 c-616 -51 -1111 -305 -1464 -749 -117 -147 -290 -435
-435 -725 -422 -846 -592 -1748 -484 -2570 6 -47 14 -91 17 -98 4 -7 92 113
216 298 116 170 213 306 216 302 3 -4 16 -56 29 -117 175 -864 436 -1424 815
-1757 263 -231 571 -366 978 -430 111 -17 193 -21 521 -25 256 -3 427 -1 500
6 438 46 790 209 1100 510 230 225 406 495 537 824 24 61 84 177 136 265 288
479 522 1048 617 1499 25 117 61 362 54 368 -2 2 -34 -51 -72 -118 -90 -158
-214 -348 -305 -464 -72 -94 -191 -226 -197 -220 -2 1 -8 90 -14 197 -46 855
-268 1542 -674 2088 -104 139 -332 368 -470 470 -314 232 -670 373 -1081 427
-118 16 -441 27 -540 19z m495 -1029 c602 -97 1050 -515 1270 -1182 147 -447
182 -995 90 -1416 -51 -236 -168 -505 -298 -686 -226 -317 -549 -520 -907
-571 -224 -31 -562 5 -785 86 -699 251 -1100 1005 -1101 2069 0 390 58 678
191 950 219 449 586 708 1084 765 98 12 341 4 456 -15z"/>
<path d="M30881 6783 c-135 -548 -300 -853 -565 -1043 l-74 -53 59 -36 c223
-136 385 -377 484 -721 64 -221 97 -467 112 -830 l7 -165 18 205 c76 884 253
1356 567 1513 l71 35 -50 36 c-78 56 -126 103 -184 180 -146 194 -242 424
-357 853 -24 90 -46 163 -49 163 -3 0 -21 -62 -39 -137z"/>
</g>
</svg>
