<?xml version="1.0" standalone="no"?>
<!DOCTYPE svg PUBLIC "-//W3C//DTD SVG 20010904//EN"
 "http://www.w3.org/TR/2001/REC-SVG-20010904/DTD/svg10.dtd">
<svg version="1.0" xmlns="http://www.w3.org/2000/svg"
 width="600.000000pt" height="600.000000pt" viewBox="0 0 600.000000 600.000000"
 preserveAspectRatio="xMidYMid meet">

<g transform="translate(0.000000,600.000000) scale(0.100000,-0.100000)"
fill="#000000" stroke="none">
<path d="M0 3000 l0 -3000 3000 0 3000 0 0 3000 0 3000 -3000 0 -3000 0 0
-3000z m3300 2644 c776 -90 1441 -494 1888 -1147 99 -145 232 -406 289 -568
49 -138 106 -364 129 -509 22 -141 30 -487 15 -637 -89 -891 -628 -1680 -1422
-2083 -739 -375 -1579 -385 -2328 -29 l-124 59 -421 -111 c-231 -61 -540 -142
-685 -180 -145 -38 -267 -68 -271 -67 -3 2 42 181 102 398 59 217 142 520 184
674 l76 279 -45 86 c-362 688 -402 1499 -110 2216 269 662 819 1202 1488 1460
226 88 459 142 725 168 101 10 389 5 510 -9z"/>
</g>
</svg>
